<svg xmlns="http://www.w3.org/2000/svg" viewBox="0 0 64 64">
  <ellipse cx="32" cy="44" rx="13" ry="11" fill="#4a7a1a"/>
  <rect x="28" y="35" width="8" height="7" fill="#5c9a22"/>
  <ellipse cx="32" cy="27" rx="12" ry="11" fill="#5c9a22"/>
  <polygon points="19,22 11,9 25,20" fill="#5c9a22"/>
  <polygon points="45,22 53,9 39,20" fill="#5c9a22"/>
  <polygon points="19,21 13,11 24,19" fill="#9a3a2a" opacity=".5"/>
  <polygon points="45,21 51,11 40,19" fill="#9a3a2a" opacity=".5"/>
  <circle cx="27" cy="25" r="3.5" fill="#e8c800"/>
  <circle cx="28" cy="25" r="2" fill="#111"/>
  <circle cx="37" cy="25" r="3.5" fill="#e8c800"/>
  <circle cx="38" cy="25" r="2" fill="#111"/>
  <ellipse cx="32" cy="29" rx="2" ry="1.5" fill="#3a6010"/>
  <path d="M25 33 Q32 38 39 33" fill="none" stroke="#2a4a0a" stroke-width="1.5"/>
  <rect x="28" y="33" width="3" height="5" fill="#e0ddc8" rx="1"/>
  <rect x="33" y="33" width="3" height="5" fill="#e0ddc8" rx="1"/>
  <line x1="19" y1="42" x2="9" y2="52" stroke="#4a7a1a" stroke-width="6" stroke-linecap="round"/>
  <line x1="45" y1="42" x2="55" y2="52" stroke="#4a7a1a" stroke-width="6" stroke-linecap="round"/>
  <line x1="55" y1="52" x2="62" y2="43" stroke="#aaa" stroke-width="2.5" stroke-linecap="round"/>
  <rect x="52" y="50" width="6" height="2" rx="1" fill="#7a5a2a" transform="rotate(-45,55,52)"/>
</svg>
